<svg xmlns="http://www.w3.org/2000/svg" viewBox="0 0 1200 600" width="1200" height="600">
  <defs>
    <linearGradient id="fundoDestaque" x1="0" y1="0" x2="1" y2="1">
      <stop offset="0" stop-color="#2b1055" />
      <stop offset="0.55" stop-color="#5b2ea6" />
      <stop offset="1" stop-color="#0f8f9e" />
    </linearGradient>
    <linearGradient id="barrasDestaque" x1="0" y1="1" x2="0" y2="0">
      <stop offset="0" stop-color="#ffffff" stop-opacity="0.15" />
      <stop offset="1" stop-color="#ffffff" stop-opacity="0.65" />
    </linearGradient>
  </defs>
  <rect width="1200" height="600" fill="url(#fundoDestaque)" />
  <g fill="#ffffff" opacity="0.12">
    <circle cx="150" cy="120" r="150" />
    <circle cx="1060" cy="480" r="200" />
  </g>
  <g fill="url(#barrasDestaque)">
    <rect x="60" y="400" width="44" height="140" rx="22" />
    <rect x="130" y="320" width="44" height="220" rx="22" />
    <rect x="200" y="430" width="44" height="110" rx="22" />
    <rect x="270" y="250" width="44" height="290" rx="22" />
    <rect x="340" y="370" width="44" height="170" rx="22" />
    <rect x="410" y="200" width="44" height="340" rx="22" />
    <rect x="480" y="340" width="44" height="200" rx="22" />
    <rect x="550" y="440" width="44" height="100" rx="22" />
    <rect x="620" y="280" width="44" height="260" rx="22" />
    <rect x="690" y="390" width="44" height="150" rx="22" />
    <rect x="760" y="230" width="44" height="310" rx="22" />
    <rect x="830" y="410" width="44" height="130" rx="22" />
    <rect x="900" y="330" width="44" height="210" rx="22" />
    <rect x="970" y="450" width="44" height="90" rx="22" />
    <rect x="1040" y="290" width="44" height="250" rx="22" />
    <rect x="1110" y="420" width="44" height="120" rx="22" />
  </g>
  <rect x="40" y="540" width="1120" height="8" rx="4" fill="#ffffff" opacity="0.45" />
  <g fill="#ffffff" opacity="0.9">
    <ellipse cx="906" cy="176" rx="34" ry="27" transform="rotate(-18 906 176)" />
    <ellipse cx="1052" cy="147" rx="34" ry="27" transform="rotate(-18 1052 147)" />
    <rect x="932" y="70" width="13" height="110" rx="6" />
    <rect x="1078" y="41" width="13" height="110" rx="6" />
    <path d="M932 70 L1091 41 L1091 79 L932 108 Z" />
  </g>
</svg>
